<svg width="1920" height="491" viewBox="0 0 1920 491" fill="none" xmlns="http://www.w3.org/2000/svg">
<rect width="1920" height="491" fill="white"/>
<path fill-rule="evenodd" clip-rule="evenodd" d="M778.589 251.461C774.022 246.058 765.939 245.38 760.536 249.947C735.356 271.231 735.384 298.513 739.733 311.289C742.013 317.987 749.291 321.568 755.988 319.288C762.685 317.007 766.266 309.73 763.986 303.033C762.501 298.67 761.138 282.985 777.075 269.513C782.478 264.946 783.156 256.864 778.589 251.461Z" fill="#3D7DDC"/>
<path fill-rule="evenodd" clip-rule="evenodd" d="M659.314 204.606C652.453 202.883 645.493 207.049 643.77 213.91C630.866 265.299 656.546 300.109 673.012 311.855L687.891 290.999C678.66 284.414 658.662 259.801 668.619 220.15C670.342 213.289 666.176 206.329 659.314 204.606Z" fill="#3D7DDC"/>
<path fill-rule="evenodd" clip-rule="evenodd" d="M626.686 269.683C621.024 273.924 619.872 281.953 624.113 287.615C648.517 320.195 681.487 321.699 696.919 317.115L689.624 292.556C683.104 294.493 661.779 295.165 644.619 272.256C640.377 266.594 632.349 265.442 626.686 269.683Z" fill="#3D7DDC"/>
<path fill-rule="evenodd" clip-rule="evenodd" d="M705.832 298.827C693.661 298.827 683.795 288.823 683.795 276.484C683.795 264.144 693.661 254.141 705.832 254.141C718.002 254.141 727.869 264.144 727.869 276.484C727.869 288.823 718.002 298.827 705.832 298.827ZM705.832 322.888C680.554 322.888 660.063 302.112 660.063 276.484C660.063 250.855 680.554 230.079 705.832 230.079C731.109 230.079 751.601 250.855 751.601 276.484C751.601 302.112 731.109 322.888 705.832 322.888Z" fill="#3D7DDC"/>
<path fill-rule="evenodd" clip-rule="evenodd" d="M719.768 176.693C714.012 172.579 706.011 173.911 701.898 179.667C671.261 222.538 658.01 252.004 655.304 272.151C653.927 282.398 655.106 291.595 659.653 298.82C664.384 306.337 671.703 310.016 678.791 310.779L681.533 285.306C681.432 285.295 681.406 285.3 681.394 285.289C681.382 285.278 681.384 285.251 681.336 285.174C681.057 284.731 679.8 282.227 680.696 275.561C682.533 261.88 692.653 236.667 722.742 194.563C726.856 188.807 725.524 180.806 719.768 176.693Z" fill="#3D7DDC"/>
<path d="M1311 278.407C1311 287.203 1304.08 293.181 1292.81 293.181C1283.25 293.181 1276.58 289.68 1272.91 282.677L1282.73 276.87C1284.61 280.542 1288.03 282.421 1292.98 282.421C1296.31 282.421 1298.53 280.884 1298.53 279.09C1298.53 277.297 1297.08 275.931 1291.27 274.65C1280.43 272.258 1275.05 267.305 1275.05 259.876C1275.05 255.691 1276.75 252.19 1280.17 249.542C1283.67 246.809 1287.77 245.443 1292.55 245.443C1301.01 245.443 1307.16 249.115 1310.15 254.666L1300.5 260.388C1298.79 257.484 1296.06 256.033 1292.21 256.033C1289.48 256.033 1287.43 257.57 1287.43 259.363C1287.43 261.327 1289.39 262.694 1293.41 263.548C1304.94 265.939 1311 270.465 1311 278.407Z" fill="#3D7DDC"/>
<path d="M1238.71 222.641V252.019H1238.88C1242.21 247.834 1246.82 245.699 1252.71 245.699C1259.12 245.699 1264.33 248.09 1268.34 252.873C1272.35 257.655 1274.4 263.121 1274.4 269.269C1274.4 275.504 1272.35 280.969 1268.17 285.837C1263.98 290.619 1258.77 293.011 1252.37 293.011C1246.31 293.011 1241.69 290.876 1238.53 286.691H1238.36V292.157H1225.38V222.641H1238.71ZM1238.36 269.269C1238.36 272.685 1239.47 275.504 1241.61 277.724C1243.74 279.859 1246.48 280.969 1249.64 280.969C1252.8 280.969 1255.53 279.859 1257.66 277.724C1259.8 275.504 1260.91 272.685 1260.91 269.269C1260.91 265.939 1259.8 263.121 1257.58 260.986C1255.44 258.851 1252.71 257.741 1249.55 257.741C1246.39 257.741 1243.74 258.851 1241.61 260.986C1239.47 263.121 1238.36 265.939 1238.36 269.269Z" fill="#3D7DDC"/>
<path d="M1194.66 293.011C1190.39 293.011 1186.72 291.815 1183.73 289.338C1180.74 286.862 1179.29 283.531 1179.29 279.432V279.261C1179.29 273.881 1181.94 269.953 1186.04 267.989C1190.22 266.024 1194.49 265.256 1199.62 265.256H1204.14C1206.53 265.256 1207.73 264.146 1207.73 261.925C1207.73 258.765 1205.17 256.289 1200.38 256.289C1195.86 256.289 1192.53 258.338 1190.22 262.438L1180.06 256.374C1183.99 249.115 1190.99 245.528 1200.98 245.528C1213.02 245.528 1220.79 251.933 1220.79 263.889V292.157H1208.5V286.52L1208.33 286.435C1205.25 290.79 1200.73 293.011 1194.66 293.011ZM1198.51 283.275C1204.23 283.275 1207.64 279.518 1207.64 274.479V273.454H1199.62C1195.77 273.454 1192.7 275.248 1192.7 278.664C1192.7 281.738 1195.09 283.275 1198.51 283.275Z" fill="#3D7DDC"/>
<path d="M1139.19 225.289H1152.94V279.005H1181.55V292.157H1139.19V225.289Z" fill="#3D7DDC"/>
<path d="M1125.41 246.382V259.534C1124.39 259.363 1123.36 259.278 1122.25 259.278C1113.63 259.278 1109.87 264.658 1109.87 272.856V292.157H1096.55V246.553H1109.78V253.556H1109.87C1111.83 249.371 1116.7 246.041 1122.76 246.041C1123.87 246.041 1124.73 246.126 1125.41 246.382Z" fill="#3D7DDC"/>
<path d="M1094.16 273.027H1061.02C1061.79 278.578 1066.57 281.994 1072.3 281.994C1076.31 281.994 1080.41 279.859 1082.46 276.528L1092.11 282.848C1088.27 289.765 1081.78 293.181 1072.47 293.181C1065.38 293.181 1059.49 290.961 1054.62 286.52C1049.84 281.994 1047.45 276.272 1047.45 269.27C1047.45 262.694 1049.84 257.143 1054.53 252.446C1059.32 247.749 1065.04 245.443 1071.61 245.443C1078.36 245.443 1083.83 247.578 1088.01 251.763C1092.19 255.947 1094.33 261.498 1094.33 268.245C1094.33 270.38 1094.24 272.002 1094.16 273.027ZM1061.37 264.231H1081.01C1080.67 260.217 1077.34 256.289 1071.27 256.289C1068.54 256.289 1066.23 257.143 1064.44 258.936C1062.65 260.644 1061.62 262.438 1061.37 264.231Z" fill="#3D7DDC"/>
<path d="M1032.28 292.157V286.349H1032.11C1029.12 290.79 1024.34 293.011 1017.94 293.011C1011.53 293.011 1006.32 290.705 1002.31 286.008C998.294 281.311 996.244 275.674 996.244 269.269C996.244 263.206 998.294 257.741 1002.48 252.958C1006.66 248.09 1011.87 245.699 1018.11 245.699C1023.83 245.699 1028.35 247.749 1031.77 251.763H1031.94V222.641H1045.18V292.157H1032.28ZM1032.28 269.269C1032.28 262.523 1027.41 257.741 1021.01 257.741C1014.6 257.741 1009.74 262.523 1009.74 269.269C1009.74 272.685 1010.85 275.504 1012.98 277.724C1015.12 279.859 1017.85 280.969 1021.01 280.969C1024.17 280.969 1026.9 279.859 1029.04 277.724C1031.17 275.504 1032.28 272.685 1032.28 269.269Z" fill="#3D7DDC"/>
<path d="M994.393 292.157H981.156V266.878C981.156 261.498 978.424 257.997 973.214 257.997C967.834 257.997 965.016 261.84 965.016 266.878V292.157H951.693V246.553H964.93V252.531H965.016C966.126 250.652 967.578 249.2 969.542 248.09C973.556 245.784 975.947 245.699 977.911 245.699C983.377 245.699 987.476 247.407 990.209 250.908C993.027 254.41 994.393 258.68 994.393 263.804V292.157Z" fill="#3D7DDC"/>
<path d="M949.306 273.027H916.171C916.94 278.578 921.722 281.994 927.444 281.994C931.458 281.994 935.557 279.859 937.606 276.528L947.257 282.848C943.414 289.765 936.923 293.181 927.615 293.181C920.527 293.181 914.634 290.961 909.766 286.52C904.984 281.994 902.593 276.272 902.593 269.27C902.593 262.694 904.984 257.143 909.681 252.446C914.463 247.749 920.185 245.443 926.761 245.443C933.507 245.443 938.973 247.578 943.157 251.763C947.342 255.947 949.477 261.498 949.477 268.245C949.477 270.38 949.392 272.002 949.306 273.027ZM916.513 264.231H936.155C935.813 260.217 932.482 256.289 926.419 256.289C923.686 256.289 921.381 257.143 919.587 258.936C917.794 260.644 916.769 262.438 916.513 264.231Z" fill="#3D7DDC"/>
<path d="M906.258 246.382V259.534C905.233 259.363 904.208 259.278 903.098 259.278C894.472 259.278 890.715 264.658 890.715 272.856V292.157H877.392V246.553H890.629V253.556H890.715C892.679 249.371 897.547 246.041 903.61 246.041C904.72 246.041 905.574 246.126 906.258 246.382Z" fill="#3D7DDC"/>
<path d="M874.733 273.71C874.733 287.289 862.606 292.157 850.906 292.157H822.725V225.289H850.479C856.372 225.289 861.325 226.826 865.51 229.9C869.694 232.975 871.829 237.33 871.829 242.966C871.829 249.2 868.67 253.983 862.435 257.228V257.399C870.719 260.473 874.733 265.17 874.733 273.71ZM858.251 245.101C858.251 239.977 854.066 238.013 848.601 238.013H836.218V252.446H847.661C854.749 252.446 858.251 249.969 858.251 245.101ZM861.24 271.917C861.24 266.878 857.568 264.402 850.309 264.402H836.218V279.347H850.736C857.738 279.347 861.24 276.87 861.24 271.917Z" fill="#3D7DDC"/>
</svg>
